<svg xmlns="http://www.w3.org/2000/svg" viewBox="0 0 104 48"><defs><style>.cls-1{fill:#ff0;stroke:#ff0;}.cls-1,.cls-2,.cls-3,.cls-4{stroke-miterlimit:10;stroke-width:2px;}.cls-2{fill:#30d5c8;stroke:#30d5c8;}.cls-3{fill:red;stroke:red;}.cls-4{fill:#009245;stroke:#009245;}</style></defs><g id="Слой_2" data-name="Слой 2"><g id="Слой_1-2" data-name="Слой 1"><path class="cls-1" d="M10,46h0a9,9,0,0,1-9-9V10a9,9,0,0,1,9-9h0a9,9,0,0,1,9,9V37A9,9,0,0,1,10,46Z"/><path class="cls-2" d="M38,46h0a9,9,0,0,1-9-9V10a9,9,0,0,1,9-9h0a9,9,0,0,1,9,9V37A9,9,0,0,1,38,46Z"/><path class="cls-3" d="M66,47h0a9,9,0,0,1-9-9V11a9,9,0,0,1,9-9h0a9,9,0,0,1,9,9V38A9,9,0,0,1,66,47Z"/><path class="cls-4" d="M94,46h0a9,9,0,0,1-9-9V10a9,9,0,0,1,9-9h0a9,9,0,0,1,9,9V37A9,9,0,0,1,94,46Z"/></g></g></svg>